<?xml version="1.0" encoding="UTF-8"?>
<svg version="1.1" xmlns="http://www.w3.org/2000/svg" width="500" height="500">
<path d="M0 0 C165 0 330 0 500 0 C500 165 500 330 500 500 C335 500 170 500 0 500 C0 335 0 170 0 0 Z " fill="#FEFEFE" transform="translate(0,0)"/>
<path d="M0 0 C165 0 330 0 500 0 C500 165 500 330 500 500 C335 500 170 500 0 500 C0 335 0 170 0 0 Z M198 20.75 C196.88971436 21.01458008 195.77942871 21.27916016 194.63549805 21.55175781 C153.00321326 31.71052938 116.96288776 52.59923863 86 82 C85.46584473 82.50547363 84.93168945 83.01094727 84.38134766 83.53173828 C76.62408415 90.92476772 69.68698497 98.66562298 63.29101562 107.26464844 C62.44992887 108.39521664 61.60255486 109.52114296 60.74804688 110.64160156 C41.99373934 135.23619662 28.96635696 164.13023114 21.25 194 C21.0634082 194.70898438 20.87681641 195.41796875 20.68457031 196.1484375 C16.78428445 212.11370101 15.5047026 228.04282053 15.60888672 244.43579102 C15.62497191 247.43226742 15.60892777 250.42739201 15.58984375 253.42382812 C15.5774038 265.76748311 16.59625506 277.64122341 18.64004517 289.81214905 C18.98286324 291.89584062 19.28948006 293.98106985 19.58081055 296.07250977 C25.47592062 337.25461933 48.19932924 376.93725706 75.62109375 407.45361328 C77.38975595 409.43709528 79.09790407 411.46976254 80.8125 413.5 C83.60583163 416.68357649 86.63733578 419.44518866 89.87109375 422.17578125 C91.31052216 423.40919972 92.71932121 424.67913567 94.09765625 425.98046875 C105.69294907 436.89953524 119.17588154 446.13645139 133 454 C134.00522705 454.57331055 134.00522705 454.57331055 135.03076172 455.15820312 C161.18643018 469.91718081 189.32030849 478.83269443 219 483 C220.08486694 483.15795044 220.08486694 483.15795044 221.19165039 483.3190918 C229.52777036 484.34570756 237.95242814 484.18605687 246.33764648 484.18530273 C249.03190249 484.18747533 251.72573872 484.20564146 254.41992188 484.22460938 C265.43453411 484.26063314 276.10108722 483.5790769 287 482 C287.92611084 481.87520264 288.85222168 481.75040527 289.80639648 481.62182617 C345.50547797 473.69404139 401.21422616 439.81902993 435 395 C465.89626099 353.33147942 484.19002952 305.83969757 484.18530273 253.6418457 C484.18747567 250.96744531 484.2056495 248.29346771 484.22460938 245.61914062 C484.28145012 229.09240743 482.73654405 213.35117227 478.875 197.25 C478.72382721 196.61313263 478.57265442 195.97626526 478.41690063 195.32009888 C464.10985095 135.45104137 425.43746767 82.25848567 373 50 C346.94822383 34.33781341 317.24345893 22.21052922 287 18 C285.80060791 17.82629883 284.60121582 17.65259766 283.36547852 17.47363281 C272.95876248 16.0541866 262.68487632 15.6884266 252.18920898 15.73925781 C249.56796073 15.74997767 246.9473996 15.73928809 244.32617188 15.7265625 C228.57856794 15.71143849 213.33699673 17.04090255 198 20.75 Z " fill="#6568F1" transform="translate(0,0)"/>
<path d="M0 0 C9.61067335 5.87409577 14.18809661 13.43902732 16.9921875 24.3359375 C20.33615656 47.06127824 13.4894079 69.66509158 6.375 90.9375 C7.2628418 90.95731934 8.15068359 90.97713867 9.06542969 90.99755859 C12.36811334 91.07578232 15.67035064 91.16247885 18.97265625 91.25488281 C20.40030398 91.29310024 21.82804563 91.32796572 23.25585938 91.359375 C25.31153868 91.40518401 27.36657554 91.4631498 29.421875 91.5234375 C30.65776367 91.5548584 31.89365234 91.5862793 33.16699219 91.61865234 C36.1910353 91.91921553 37.89662969 92.23442577 40.375 93.9375 C42.85156846 97.65235269 43.02872421 100.63109174 42.375 104.9375 C39.9406161 109.80626781 37.15099719 112.39101781 32.375 114.9375 C29.04705833 115.46621095 25.79936598 115.40970765 22.4375 115.3125 C21.51686768 115.29960937 20.59623535 115.28671875 19.64770508 115.2734375 C11.78750178 115.09872082 4.12074442 114.27010119 -3.625 112.9375 C-3.98078125 114.15953125 -3.98078125 114.15953125 -4.34375 115.40625 C-11.11570155 134.07040915 -24.50744248 150.35641334 -37.625 164.9375 C-38.26179687 165.64777344 -38.89859375 166.35804688 -39.5546875 167.08984375 C-46.88509274 174.82359664 -55.88340067 180.71454069 -65.625 184.9375 C-66.31722656 185.2571875 -67.00945312 185.576875 -67.72265625 185.90625 C-75.66864444 189.11434991 -84.79766308 189.37219804 -92.9765625 186.94140625 C-102.79164004 182.55568173 -108.28115826 175.55162029 -112.4375 165.8125 C-113.17883732 163.85874145 -113.90932616 161.90080447 -114.625 159.9375 C-114.90988281 159.26203125 -115.19476563 158.5865625 -115.48828125 157.890625 C-121.25885744 144.04124214 -121.61186958 128.69610003 -122.625 113.9375 C-122.9653125 114.96746094 -123.305625 115.99742187 -123.65625 117.05859375 C-132.14211633 142.22079867 -144.64057045 171.30086656 -169.625 183.9375 C-178.38795902 188.26712768 -187.96515559 189.9880788 -197.4921875 187.0546875 C-209.41414281 181.58290862 -215.92926234 171.15761165 -220.48046875 159.25390625 C-228.42842323 137.00047408 -229.97890994 114.47609954 -230 91.0625 C-230.00208466 90.12775848 -230.00416931 89.19301697 -230.00631714 88.22994995 C-230.00178342 70.27979096 -228.50029338 52.53415144 -226.11328125 34.75 C-225.77110547 32.07829154 -225.47460294 29.42991357 -225.23046875 26.75 C-224.4158136 18.2488223 -223.5265848 9.71404437 -217.09375 3.4453125 C-212.40621293 0.23921403 -207.10660677 0.08233514 -201.625 0.9375 C-197.90497108 2.15068747 -194.67058135 3.3946715 -192.42578125 6.70703125 C-188.7224164 17.02225724 -192.61266912 30.90179499 -194.24023438 41.40576172 C-194.79498322 45.05598094 -195.28563822 48.71231214 -195.75 52.375 C-195.89695313 53.50808594 -196.04390625 54.64117187 -196.1953125 55.80859375 C-197.5276023 67.89425416 -197.81138395 79.9127583 -197.81030273 92.05908203 C-197.81249103 94.80126444 -197.83072701 97.54304439 -197.84960938 100.28515625 C-198.10685793 129.96152262 -198.10685793 129.96152262 -185.8125 155.9375 C-182.421595 157.487628 -180.32809809 157.49296471 -176.625 156.9375 C-160.41794258 149.55840317 -151.94351962 124.84883468 -146.171875 109.55859375 C-144.22881215 104.27468691 -142.37256485 98.96338403 -140.55322266 93.63574219 C-139.79315988 91.42632245 -139.00873424 89.23063414 -138.19921875 87.0390625 C-132.56165596 71.28326811 -128.98254355 54.67258517 -125.984375 38.2265625 C-125.85276474 37.50595139 -125.72115448 36.78534027 -125.58555603 36.04289246 C-124.95236275 32.54781034 -124.33951147 29.05052511 -123.75415039 25.54711914 C-121.09397171 10.31752372 -121.09397171 10.31752372 -115.1875 4.5625 C-109.69457038 1.07917878 -105.0713289 0.19850286 -98.625 0.9375 C-94.35948872 2.51731899 -92.00350004 4.08268959 -89.625 7.9375 C-88.27768209 15.75722748 -90.15517698 24.02234409 -91.39205933 31.76751709 C-94.23751523 49.84562814 -94.95086875 67.82390286 -94.88574219 86.10693359 C-94.87496922 89.69776113 -94.88573703 93.2880932 -94.8984375 96.87890625 C-95.94573777 126.08975705 -95.94573777 126.08975705 -86.125 152.6875 C-81.45967085 156.88629623 -77.67950071 157.51069258 -71.49609375 157.37109375 C-66.52781765 156.62078267 -63.36871086 154.15506771 -59.625 150.9375 C-58.91988281 150.35355469 -58.21476563 149.76960937 -57.48828125 149.16796875 C-44.65004187 137.48217456 -33.10585524 118.38006571 -27.625 101.9375 C-28.20507812 101.67195313 -28.78515625 101.40640625 -29.3828125 101.1328125 C-41.11740641 94.87708822 -48.57436612 82.12398273 -52.4375 69.8125 C-56.74122067 50.98372207 -54.90004298 29.36972522 -44.625 12.9375 C-34.50847088 -0.06411335 -15.73328205 -7.41677129 0 0 Z " fill="#6467F1" transform="translate(287.625,155.0625)"/>
<path d="M0 0 C0.33 0 0.66 0 1 0 C1 77.88 1 155.76 1 236 C-76.55 236 -154.1 236 -234 236 C-234 235.67 -234 235.34 -234 235 C-232.72769531 234.90203125 -231.45539063 234.8040625 -230.14453125 234.703125 C-184.75357803 230.96561088 -139.70902131 215.31313885 -103 188 C-102.42604492 187.58008789 -101.85208984 187.16017578 -101.26074219 186.72753906 C-93.97934134 181.38840083 -87.23032075 175.63893892 -80.65234375 169.46484375 C-78.54288936 167.50451132 -76.41054058 165.63945317 -74.1875 163.8125 C-71.0831046 161.18685473 -68.47996969 158.25973241 -65.85546875 155.16015625 C-64.62033444 153.72219988 -63.35149826 152.31251018 -62.05078125 150.93359375 C-49.15974931 137.23240453 -38.88059272 121.52304329 -30 105 C-29.44771729 103.9780957 -29.44771729 103.9780957 -28.88427734 102.93554688 C-12.21596151 71.7640304 -0.6641014 35.49923869 0 0 Z " fill="#FEFEFE" transform="translate(499,264)"/>
<path d="M0 0 C76.56 0 153.12 0 232 0 C232 79.53 232 159.06 232 241 C231.67 241 231.34 241 231 241 C230.96132813 239.3603125 230.96132813 239.3603125 230.921875 237.6875 C229.0383815 180.19038455 205.06143598 123.98911758 166 82 C164.80778787 80.6290837 163.62008001 79.25423376 162.4375 77.875 C134.79174249 46.21614866 96.2719571 25.47410005 57 12 C55.90042969 11.61199219 54.80085938 11.22398438 53.66796875 10.82421875 C36.41035392 5.0864495 17.9778178 3.1426261 0 1 C0 0.67 0 0.34 0 0 Z " fill="#FEFEFE" transform="translate(268,0)"/>
<path d="M0 0 C0.33 0 0.66 0 1 0 C1.09796875 0.88816406 1.1959375 1.77632813 1.296875 2.69140625 C7.71997741 57.56463461 27.47282262 109.45969083 66 150 C67.21572509 151.3894001 68.42462611 152.78481591 69.625 154.1875 C76.42921681 161.97278993 83.89307478 168.59360395 92 175 C92.97710937 175.78246094 93.95421875 176.56492187 94.9609375 177.37109375 C135.50015748 209.28168882 182.74975781 227.10838676 234 231 C234 231.33 234 231.66 234 232 C156.78 232 79.56 232 0 232 C0 155.44 0 78.88 0 0 Z " fill="#FEFEFE" transform="translate(0,268)"/>
<path d="M0 0 C76.89 0 153.78 0 233 0 C233 0.33 233 0.66 233 1 C232.34854004 1.05945801 231.69708008 1.11891602 231.02587891 1.18017578 C206.77169566 3.47740611 183.74370064 8.19678052 161 17 C160.28618164 17.26893066 159.57236328 17.53786133 158.83691406 17.81494141 C140.78183348 24.64512575 123.65507803 33.7055066 108 45 C107.33097656 45.48114258 106.66195312 45.96228516 105.97265625 46.45800781 C97.55641531 52.55077069 89.60887357 58.91303472 82 66 C80.62924817 67.19240122 79.25442137 68.38013883 77.875 69.5625 C70.06733738 76.40007228 63.47343098 83.89961822 57 92 C56.36449219 92.75667969 55.72898438 93.51335937 55.07421875 94.29296875 C23.16016605 132.6823365 7.66878442 179.2053305 1 228 C0.67 228 0.34 228 0 228 C0 152.76 0 77.52 0 0 Z " fill="#FEFEFE" transform="translate(0,0)"/>
<path d="M0 0 C7.59458562 6.71211617 12.41988222 14.78968647 13.37109375 24.97265625 C13.7049075 35.48468687 13.3183727 46.75166834 6 55 C1.42701852 57.96415004 -3.75721407 57.8651706 -9 57 C-13.03297602 54.76884224 -15.53820819 52.38537542 -17 48 C-17.04783779 46.21157529 -17.03761418 44.42130008 -16.9921875 42.6328125 C-16.96705078 41.05693359 -16.96705078 41.05693359 -16.94140625 39.44921875 C-16.89728802 37.24071193 -16.84525919 35.03234837 -16.78515625 32.82421875 C-16.77097656 31.77105469 -16.75679688 30.71789062 -16.7421875 29.6328125 C-16.7201123 28.67262207 -16.69803711 27.71243164 -16.67529297 26.72314453 C-17.06454679 23.45868054 -18.07020987 21.63983418 -20 19 C-22.66627739 17.15221448 -22.66627739 17.15221448 -25.75 15.75 C-26.75546875 15.24984375 -27.7609375 14.7496875 -28.796875 14.234375 C-40.43407865 9.74979408 -58.54546645 10.22587188 -70 15 C-75.23999235 17.82041313 -80.79938252 21.24687295 -83.44921875 26.78515625 C-85.01360459 33.07598443 -85.17098844 40.7814475 -82.9375 46.9375 C-74.3740822 60.47322492 -58.17972036 65.46300173 -44.00195312 71.28173828 C-17.5813513 82.12620198 -17.5813513 82.12620198 -9 90 C-8.06994141 90.77730469 -8.06994141 90.77730469 -7.12109375 91.5703125 C0.03366231 97.96786976 4.52730618 107.23193866 5.30859375 116.765625 C5.87780141 131.16399148 2.94994378 143.83784887 -6.8046875 154.890625 C-23.53375774 170.96482061 -46.43297294 175.39641372 -68.87255859 175.23217773 C-87.86167087 174.85101641 -106.87895866 171.58358744 -121.3125 158.25 C-130.79479615 148.2494407 -131.55630037 137.02270521 -131.34375 123.92578125 C-131.00429209 116.43083354 -128.63617149 111.57486518 -123.3125 106.375 C-118.76893647 104.4889925 -114.84998599 104.1969179 -110 105 C-106.76060344 106.73539102 -104.57678866 108.42321134 -102 111 C-101.83642578 113.42675781 -101.83642578 113.42675781 -101.9453125 116.453125 C-101.96980469 117.54753906 -101.99429687 118.64195312 -102.01953125 119.76953125 C-102.08937832 122.07448448 -102.16739339 124.37920587 -102.25390625 126.68359375 C-102.44506724 135.15952032 -102.44506724 135.15952032 -98 142 C-86.39273443 151.86019261 -68.34289254 150.85141851 -54 150 C-45.65385339 148.77884721 -36.40198418 145.57208339 -30.5 139.375 C-30.005 138.59125 -29.51 137.8075 -29 137 C-28.34 136.01 -27.68 135.02 -27 134 C-25.35895106 128.25632872 -25.08108684 122.46435995 -27.4375 116.9375 C-35.73165407 102.43683608 -58.92970867 96.44652704 -73.46313477 90.62573242 C-89.0020194 84.32141504 -104.44165201 75.88857952 -112.34765625 60.3515625 C-117.36788873 48.36778174 -117.56906351 35.36536493 -113.328125 23.10546875 C-107.03810958 8.39793269 -96.58687277 -0.58403964 -82.2421875 -7.2890625 C-56.89869835 -17.19950154 -22.37246609 -16.77934957 0 0 Z " fill="#6467F1" transform="translate(437,169)"/>
<path d="M0 0 C3.98603612 0.65226046 5.08520747 1.33898801 7.4375 4.5625 C9.76462404 9.08232936 9.82259348 13.27593063 9.8125 18.25 C9.81088867 19.08144531 9.80927734 19.91289062 9.80761719 20.76953125 C9.56250728 33.49602197 6.29389319 45.83482709 1.4375 57.5625 C-4.61847783 54.83469964 -8.19991064 50.03277466 -10.9375 44.0625 C-12.91082338 38.10936475 -12.98860582 32.15249279 -13.0625 25.9375 C-13.08103027 24.95974609 -13.09956055 23.98199219 -13.11865234 22.97460938 C-13.04912779 14.90976117 -11.11466236 8.9423907 -6.25 2.5 C-3.5625 0.5625 -3.5625 0.5625 0 0 Z " fill="#FBFBFE" transform="translate(268.5625,177.4375)"/>
</svg>
