<?xml version="1.0" encoding="UTF-8"?>
<svg version="1.1" xmlns="http://www.w3.org/2000/svg" width="500" height="137">
<path d="M0 0 C165 0 330 0 500 0 C500 45.21 500 90.42 500 137 C335 137 170 137 0 137 C0 91.79 0 46.58 0 0 Z " fill="#FEFEFE" transform="translate(0,0)"/>
<path d="M0 0 C3.77022273 2.43638115 6.56467849 4.69403547 8 9 C8.91604144 24.51985602 6.1040394 36.46563133 -3.375 49.1875 C-3.91125 49.785625 -4.4475 50.38375 -5 51 C-4.39671875 51.30292969 -3.7934375 51.60585938 -3.171875 51.91796875 C3.9470735 55.64967562 7.85309235 59.44742163 11 67 C11.04842915 68.6659629 11.0562742 70.33428364 11 72 C11.72445312 71.7834375 12.44890625 71.566875 13.1953125 71.34375 C25.62078052 67.76521521 25.62078052 67.76521521 30.16015625 70.12109375 C32 72 32 72 32.25 74.99609375 C32.08352152 77.2877741 31.91685528 79.57944081 31.75 81.87109375 C31.71737281 85.07910587 31.71737281 85.07910587 33.8203125 87.33203125 C40.34059753 92.32156836 49.18909466 91.71489642 57 91 C61.63859586 89.8031517 64.90817588 88.25725202 68.0625 84.625 C69.20100874 81.43717553 69.49027893 79.36191264 69 76 C65.43382647 69.35394933 57.67358991 67.11791649 51.0703125 64.33984375 C40.83251834 60.01732616 32.03648346 56.06567278 25.921875 46.2734375 C23.6592833 40.69365627 24.16498335 33.31364201 25.6171875 27.55078125 C28.84031213 20.29162003 35.05249583 15.57618903 42.25 12.625 C54.34202923 8.19639057 67.22815278 8.7173428 79 14 C83.82717414 16.9731384 87.27495128 20.52043349 89 26 C89.63689867 32.51251313 89.90364996 38.44480583 86 44 C82.95016004 45.52491998 80.3576631 45.23562548 77 45 C75.2734375 43.88671875 75.2734375 43.88671875 74 42 C73.83070149 38.67046267 74.06953136 35.45406901 74.28515625 32.12890625 C74.26852792 28.94901187 74.26852792 28.94901187 72.30859375 26.71484375 C66.09270161 22.09762438 59.48165478 22.25995695 52 23 C48.01093407 24.19981208 45.11465022 26.02468106 42 28.75 C40.45093253 32.23540181 40.19330325 35.32427626 41 39 C44.93912821 46.60103463 52.95656436 49.04373656 60.4375 52.0625 C79.70011981 59.92247516 79.70011981 59.92247516 84 69 C86.1178216 76.1345054 85.74599077 83.24263715 82.3828125 89.8984375 C77.25503791 97.69149606 69.51353579 101.31872837 60.71484375 103.58984375 C47.91681281 105.52335922 35.1848677 104.69939885 24.171875 97.63671875 C19.85405472 94.38282181 18.26482728 91.36827428 17.25 86.125 C17.1675 85.09375 17.085 84.0625 17 83 C14.69 83 12.38 83 10 83 C9.79697266 83.8353125 9.79697266 83.8353125 9.58984375 84.6875 C7.44956695 92.27458902 3.62176137 97.24056277 -2.625 102 C-8.78966974 103.82656881 -15.62251156 104.5765014 -21.5859375 101.79296875 C-26.61461493 98.2075399 -26.61461493 98.2075399 -27.703125 94.796875 C-27.80109375 94.20390625 -27.8990625 93.6109375 -28 93 C-28.64066406 93.47050781 -29.28132813 93.94101563 -29.94140625 94.42578125 C-31.23884766 95.35970703 -31.23884766 95.35970703 -32.5625 96.3125 C-33.40941406 96.92738281 -34.25632812 97.54226562 -35.12890625 98.17578125 C-41.40781813 102.16523955 -46.63426762 103.55976835 -53.9375 103.5 C-54.73438232 103.49500488 -55.53126465 103.49000977 -56.35229492 103.48486328 C-62.37985496 103.30512113 -66.62495032 102.38665458 -71 98 C-71.94875 97.0925 -72.8975 96.185 -73.875 95.25 C-76.48209313 91.2626811 -77.30607132 87.66071501 -78 83 C-82.8509592 82.26418035 -87.17864 81.97241197 -92 83 C-95.60988033 86.50419816 -97.679907 90.57432382 -100 95 C-102.42203826 98.44699784 -104.81825101 101.80521457 -109 103 C-113.00697899 103.53094546 -115.93071636 103.70347608 -119.375 101.4375 C-122.90268746 96.14596882 -123.26628174 90.15047303 -124 84 C-124.53109375 85.12019531 -125.0621875 86.24039063 -125.609375 87.39453125 C-126.32237919 88.8674478 -127.0359507 90.34008982 -127.75 91.8125 C-128.09804687 92.55048828 -128.44609375 93.28847656 -128.8046875 94.04882812 C-132.25746021 101.11422414 -132.25746021 101.11422414 -136 103 C-139.05959309 103.59791344 -141.92764073 103.50923082 -145 103 C-148.44437665 100.61543155 -149.85018017 97.98014557 -151 94 C-152.10354753 86.41210386 -152.21888129 78.84225081 -152.24023438 71.1862793 C-152.25009227 69.04243285 -152.28127382 66.89948806 -152.3125 64.75585938 C-152.3190178 63.39063062 -152.32427304 62.02539513 -152.328125 60.66015625 C-152.3374707 59.42918213 -152.34681641 58.19820801 -152.35644531 56.92993164 C-152.18000488 55.47961548 -152.18000488 55.47961548 -152 54 C-148.30513897 51.53675931 -146.36706908 51.61008312 -142 52 C-139.72573467 53.62466309 -139.08288794 54.54047239 -138.58349609 57.30908203 C-138.56367676 58.19966309 -138.54385742 59.09024414 -138.5234375 60.0078125 C-138.4925 60.99523437 -138.4615625 61.98265625 -138.4296875 63 C-138.40261719 64.546875 -138.40261719 64.546875 -138.375 66.125 C-138.32324771 68.1485147 -138.26859787 70.17195753 -138.2109375 72.1953125 C-138.18354492 73.17016602 -138.15615234 74.14501953 -138.12792969 75.14941406 C-137.94917199 79.13257212 -137.50152143 83.04538021 -137 87 C-136.68772461 86.25427734 -136.37544922 85.50855469 -136.05371094 84.74023438 C-134.6219534 81.32563571 -133.18601174 77.91281161 -131.75 74.5 C-131.25886719 73.32695313 -130.76773438 72.15390625 -130.26171875 70.9453125 C-122.88745552 53.44372776 -122.88745552 53.44372776 -120 52 C-117 51.8125 -117 51.8125 -114 52 C-111.11044112 54.88955888 -111.53920116 57.96480001 -111.3671875 61.8515625 C-111.32562531 62.62559418 -111.28406311 63.39962585 -111.24124146 64.19711304 C-111.11034551 66.67271021 -110.99252901 69.1487357 -110.875 71.625 C-110.78862015 73.30212783 -110.70139125 74.97921217 -110.61328125 76.65625 C-110.39899377 80.77039308 -110.19643517 84.88496746 -110 89 C-108.65004256 86.99708738 -107.32580809 84.98329555 -106.01171875 82.95703125 C-105.63172729 82.39826294 -105.25173584 81.83949463 -104.86022949 81.26379395 C-101.37171228 75.81359516 -101.63854899 71.42493954 -102.03515625 65.18359375 C-101.98357283 60.51242859 -100.31984107 57.24994968 -97 54 C-93.54556515 51.94637928 -91.03045877 51.49619265 -87 52 C-84.625 53.375 -84.625 53.375 -83 56 C-82.22728237 61.64083872 -82.78140152 66.7308286 -85 72 C-81.88372479 71.63027243 -79.77474408 71.3535337 -77 70 C-75.48113285 67.89360545 -74.46166245 65.73219837 -73.34375 63.390625 C-70.63893931 58.57857807 -66.25780259 55.33152461 -61.5625 52.5625 C-55.06795404 51.13686796 -49.51171593 51.4029134 -43.6640625 54.74609375 C-40.32227819 57.26419883 -39.3148784 60.0713698 -38.65625 64.10546875 C-38.23417417 70.23612021 -39.99909579 74.39442513 -44 79 C-49.0377933 83.60700812 -55.10654497 87 -62 87 C-62 87.99 -62 88.98 -62 90 C-55.14647026 92.28450991 -47.99057698 91.89402392 -41.5 88.75 C-38.10467335 86.91652361 -35.49988455 84.95242215 -33 82 C-32.39521398 79.43899981 -32.39521398 79.43899981 -32.4609375 76.6328125 C-32.43926514 75.58923584 -32.41759277 74.54565918 -32.39526367 73.47045898 C-32.38523315 71.81445679 -32.38523315 71.81445679 -32.375 70.125 C-32.32133438 67.84753479 -32.26277869 65.57017931 -32.19921875 63.29296875 C-32.17005371 62.20032715 -32.14088867 61.10768555 -32.11083984 59.98193359 C-31.42729095 41.59236056 -26.72536275 17.86766084 -13.390625 4.37109375 C-9.15673066 0.69263605 -5.58872388 -0.75232821 0 0 Z " fill="#6669F1" transform="translate(181,9)"/>
<path d="M0 0 C1 1 1 1 1.25 3.4375 C0.96758023 7.46198175 -0.06292348 10.82591145 -1.34375 14.6328125 C-2.17810116 17.23302479 -2.17810116 17.23302479 -2 21 C-1.54109375 20.26394531 -1.0821875 19.52789062 -0.609375 18.76953125 C0.00421875 17.79371094 0.6178125 16.81789063 1.25 15.8125 C1.85328125 14.84957031 2.4565625 13.88664062 3.078125 12.89453125 C6.93693756 7.08278306 10.59565317 2.90889024 17 0 C20.73953718 -0.49860496 22.86547869 -0.62734751 26.17578125 1.203125 C28 3 28 3 28.49609375 5.390625 C28.34671269 12.68042056 27.22631875 19.43212141 25.66796875 26.55078125 C24.90088206 30.51181952 24.75442923 33.98901076 25 38 C28.3053733 38.37775695 29.76547769 38.14251208 32.6484375 36.390625 C35.26872775 34.18659515 35.26872775 34.18659515 35.49609375 30.96875 C35.47675781 29.8240625 35.45742188 28.679375 35.4375 27.5 C35.76767501 19.15873667 37.9647799 11.98100409 44.03515625 5.9921875 C45.97231144 4.49315526 47.86702572 3.20033775 50 2 C50.94359375 1.44119141 50.94359375 1.44119141 51.90625 0.87109375 C57.0075959 -1.25129456 63.16925383 -0.58722047 68.3125 1.0625 C72.97985623 4.42733821 76.7470088 8.66230588 79 14 C79.125 17.25 79.125 17.25 79 20 C82.96 19.505 82.96 19.505 87 19 C86.94779297 17.31970703 86.94779297 17.31970703 86.89453125 15.60546875 C86.86639161 14.13282749 86.83909163 12.66017002 86.8125 11.1875 C86.78736328 10.44951172 86.76222656 9.71152344 86.73632812 8.95117188 C86.66259993 3.51986114 86.66259993 3.51986114 88.29296875 1.0078125 C91.16239249 -0.68626376 93.76446615 -0.28888695 97 0 C97.99 0.66 98.98 1.32 100 2 C100.41650391 4.1796875 100.41650391 4.1796875 100.4765625 6.875 C100.5075 7.86113281 100.5384375 8.84726563 100.5703125 9.86328125 C100.58835937 10.89839844 100.60640625 11.93351562 100.625 13 C100.67688465 15.02090724 100.73155072 17.04174507 100.7890625 19.0625 C100.81645508 20.04863281 100.84384766 21.03476563 100.87207031 22.05078125 C101.06022008 26.3882798 101.49806207 30.68881816 102 35 C106.39223501 26.81447112 109.91652568 18.45162095 113.1953125 9.76855469 C113.67677734 8.51993652 113.67677734 8.51993652 114.16796875 7.24609375 C114.58985474 6.12738892 114.58985474 6.12738892 115.02026367 4.98608398 C116.09274706 2.81198671 117.10908578 1.5123205 119 0 C122.03610563 -0.3795132 124.05401847 -0.628611 126.65771484 1.1015625 C128.66063617 3.93435919 128.42078293 6.3107135 128.4765625 9.75 C128.49993179 10.73178223 128.49993179 10.73178223 128.52377319 11.73339844 C128.57124434 13.82225345 128.59902899 15.9107765 128.625 18 C128.66154766 20.08898711 128.7022344 22.17778858 128.74765015 24.26660156 C128.78722424 26.16195874 128.81504127 28.05755049 128.84228516 29.953125 C128.86644552 33.0439434 128.86644552 33.0439434 130 36 C131.36941868 34.0942007 132.72011163 32.17493427 134.0625 30.25 C134.81660156 29.18265625 135.57070313 28.1153125 136.34765625 27.015625 C138.2329775 24.25734592 138.2329775 24.25734592 137.76953125 21.875 C137.51558594 21.25625 137.26164063 20.6375 137 20 C136.19053046 13.84803146 137.0294921 9.73867308 140.6484375 4.6640625 C143.49022344 1.16521623 144.95975866 0.14860591 149.5 -0.5 C153 0 153 0 155.4375 1.9375 C157.54613408 6.07042279 157.57657783 9.44503512 157 14 C156 17.0625 156 17.0625 155 19 C157.97 18.67 160.94 18.34 164 18 C164.36351562 16.55367187 164.36351562 16.55367187 164.734375 15.078125 C165.06953125 13.81484375 165.4046875 12.5515625 165.75 11.25 C166.07484375 9.99703125 166.3996875 8.7440625 166.734375 7.453125 C168.03019473 3.91761684 169.01534493 2.24687517 172 0 C175.625 -0.375 175.625 -0.375 179 0 C181 2 181 2 181.046875 4.46875 C180.56909472 9.34713816 180.04121691 14.09487351 178.9375 18.875 C177.54287174 25.1973148 177.83299062 31.56086073 178 38 C180.26632315 38.46783392 180.26632315 38.46783392 183 38 C185.52617196 35.73152662 187.68296077 33.38384656 189.89453125 30.82226562 C191.28125 29.30859375 191.28125 29.30859375 194 27 C196.84375 27.16015625 196.84375 27.16015625 199 28 C199.74369433 32.462166 199.83149178 34.75370507 197.27734375 38.58203125 C192.25956669 44.32278133 187.04356274 50.21038722 179.23046875 51.43359375 C174.96218045 51.62215267 171.87607027 51.41978367 168 49.5625 C163.67287001 44.0183647 162.56002358 37.89296389 163 31 C161.64455078 31.01740234 161.64455078 31.01740234 160.26171875 31.03515625 C159.08222656 31.04417969 157.90273438 31.05320312 156.6875 31.0625 C155.51574219 31.07410156 154.34398437 31.08570312 153.13671875 31.09765625 C150 31 150 31 147 30 C146.62101562 31.06734375 146.62101562 31.06734375 146.234375 32.15625 C143.15442573 39.25182933 137.7278391 47.01821768 131 51 C127.8441767 51.65769347 125.14313843 51.75291909 122 51 C118.95626619 48.26063957 117.7407494 45.95066345 117 42 C116.93311409 40.08438746 116.91468281 38.16664408 116.9375 36.25 C116.94652344 35.26515625 116.95554687 34.2803125 116.96484375 33.265625 C116.98224609 32.14414063 116.98224609 32.14414063 117 31 C116.34 31 115.68 31 115 31 C114.84144531 31.556875 114.68289063 32.11375 114.51953125 32.6875 C112.50611439 39.27281924 109.80249174 44.7971523 105.25 50 C101.54158638 51.64818383 97.96993059 51.75304392 94 51 C89.54385411 47.45793532 88.74010569 42.40846462 88 37 C87.875 33.4375 87.875 33.4375 88 31 C85.03 31.33 82.06 31.66 79 32 C78.649375 33.155 78.29875 34.31 77.9375 35.5 C75.54824703 41.81525551 71.53490055 46.37766365 65.875 50 C60.48126972 51.83849497 54.57391615 51.89457913 49 51 C46.53152936 49.62170567 44.69548026 48.19088373 42.68359375 46.21484375 C41.06978697 44.76919796 41.06978697 44.76919796 38.9765625 45.19140625 C36.0509715 46.38823893 33.60588592 48.2257798 31 50 C26.04691966 51.65102678 21.1584394 51.66739917 16 51 C12.07571236 48.50958669 12.07571236 48.50958669 11 45 C9.97694779 35.55644114 11.24676894 26.28273233 13 17 C4.56573102 24.75431934 0.74649083 35.61030553 -2.17578125 46.453125 C-3 49 -3 49 -5 51 C-11.16 51.56 -11.16 51.56 -13.875 49.75 C-17.25375825 44.49415383 -16.22323328 37.48236084 -16.25 31.5 C-16.270625 30.37851563 -16.29125 29.25703125 -16.3125 28.1015625 C-16.35297081 19.33963199 -15.8057164 10.33610717 -10.9375 2.8125 C-7.41455102 -0.48316195 -4.72675833 -0.17188212 0 0 Z " fill="#6668F1" transform="translate(292,61)"/>
<path d="M0 0 C0.14695313 1.21236328 0.14695313 1.21236328 0.296875 2.44921875 C1.16638581 8.66322272 1.96172187 12.12621605 6 17 C6 20.93657628 5.5993618 23.15645376 3.3125 26.375 C0.36668435 28.44503262 -1.38502883 29.07377492 -5 29 C-8.46507226 26.3049438 -10.23716242 24.28604619 -11 20 C-11.63879071 12.55563132 -10.90092624 7.5559741 -6.0625 1.625 C-4 0 -4 0 0 0 Z " fill="#F8F8FE" transform="translate(173,72)"/>
<path d="M0 0 C0.14695312 0.97839844 0.14695312 0.97839844 0.296875 1.9765625 C1.27046268 7.6670146 2.46449044 11.43805218 6 16 C6.33 16.66 6.66 17.32 7 18 C4.28571429 25.85714286 4.28571429 25.85714286 0 28 C-2.4375 28.5625 -2.4375 28.5625 -5 28 C-7.77141096 25.90604505 -8.6827 25.0934955 -10 22 C-10.85946417 15.79852143 -11.21987062 9.31666091 -8.125 3.6875 C-5.20340611 -0.00745698 -4.80593225 0 0 0 Z " fill="#FBFBFE" transform="translate(352,73)"/>
<path d="M0 0 C3 1 3 1 4 3 C4.61176996 9.23092995 3.62461437 14.58490952 1.5625 20.4375 C1.30388184 21.19595215 1.04526367 21.9544043 0.77880859 22.73583984 C-2.34961577 31.53554997 -6.62180307 39.76898978 -11 48 C-11.33 48 -11.66 48 -12 48 C-11.82578688 39.00426793 -10.47394086 30.42350677 -8.6875 21.625 C-8.48680908 20.60341797 -8.28611816 19.58183594 -8.0793457 18.52929688 C-6.6525598 11.75855927 -5.04359435 5.04359435 0 0 Z " fill="#F7F7FE" transform="translate(175,20)"/>
<path d="M0 0 C3.125 1.4375 3.125 1.4375 5 4 C5.53741536 8.57642768 4.83680267 11.92784658 2 15.5625 C-2.09994064 17.52705489 -5.53411542 17.79985993 -10 17 C-12.5625 15.5 -12.5625 15.5 -14 13 C-14.6995733 8.10298688 -14.74919973 6.16005119 -12.0625 2 C-7.93053157 -0.69842836 -4.80161436 -0.90138609 0 0 Z " fill="#686AF1" transform="translate(475,37)"/>
<path d="M0 0 C2.5 0.25 2.5 0.25 4.5 2.25 C4.5 5.5625 4.5 5.5625 3.5 9.25 C0.518101 12.231899 -2.52891601 14.74372676 -6.5 16.25 C-7.49 16.25 -8.48 16.25 -9.5 16.25 C-9.07520707 10.09050252 -7.50958843 0.75095884 0 0 Z " fill="#F9F9FE" transform="translate(125.5,71.75)"/>
</svg>
